<svg id="Capa_1" enable-background="new 0 0 511.939 511.939" height="512" viewBox="0 0 511.939 511.939" width="512" xmlns="http://www.w3.org/2000/svg"><g><g><path clip-rule="evenodd" d="m255.97 422.48c.203-27.552 140.818-35.62 140.818-170.758 0-81.912-80.024-143.458-140.819-237.869-60.794 94.411-140.819 155.956-140.819 237.869.001 135.138 140.617 143.206 140.82 170.758z" fill="#b6efbb" fill-rule="evenodd"/><path clip-rule="evenodd" d="m255.97 422.48c.044-5.967 6.68-11.021 17.041-16.649-25.889-22.057-135.36-42.362-135.36-161.61 0-75.818 68.559-134.191 126.97-217.325-2.919-4.28-5.806-8.626-8.651-13.044-60.794 94.411-140.819 155.956-140.819 237.869 0 135.139 140.616 143.207 140.819 170.759z" fill="#71e4bf" fill-rule="evenodd"/><g><path d="m314.186 153.604-9.304-11.766 11.766-9.305 9.304 11.766zm-18.608-23.532-9.304-11.766 11.766-9.305 9.304 11.766z" fill="#fff"/></g></g><g><path d="m299.069 384.339 6.855 13.342c4.913-2.524 9.323-4.901 13.484-7.266l-7.413-13.041c-3.974 2.26-8.203 4.538-12.926 6.965z"/><path d="m322.993 91.637c-20.365-25.506-41.423-51.882-60.718-81.845l-6.305-9.792-6.306 9.792c-19.294 29.963-40.353 56.339-60.718 81.845-43.622 54.636-81.295 101.82-81.295 160.084 0 97.828 70.482 132.402 112.595 153.06 9.137 4.482 17.029 8.354 22.354 11.958 5.804 3.93 5.871 5.782 5.871 5.801v89.4h15v-89.406c.003-.068.147-1.919 5.87-5.793 5.324-3.605 13.214-7.477 22.351-11.958l.685-.336-6.607-13.467-.684.336c-8.291 4.068-15.679 7.695-21.614 11.394v-136.36l74.829-50.271-8.365-12.451-66.464 44.651v-136.927h-15v59.442l-33.139-29.078-9.894 11.275 43.032 37.76v131.903l-81.246-58.875-8.802 12.146 90.047 65.253v61.53c-5.936-3.699-13.325-7.327-21.618-11.395-41.494-20.354-104.201-51.114-104.201-139.593 0-53.011 36.154-98.293 78.017-150.725 18.42-23.071 37.4-46.843 55.302-73.498 17.901 26.655 36.881 50.427 55.302 73.498 41.863 52.432 78.017 97.714 78.017 150.725 0 51.767-20.603 89.289-64.837 118.087l8.184 12.57c48.215-31.389 71.653-74.127 71.653-130.657 0-58.263-37.674-105.448-81.296-160.083z"/></g></g></svg>