<svg id="Layer_1" enable-background="new 0 0 512.018 512.018" height="512" viewBox="0 0 512.018 512.018" width="512" xmlns="http://www.w3.org/2000/svg"><g><path d="m512.005 8.143c.057-3.645-2.335-6.813-5.758-7.805-7.36-2.141-95.297 5.952-171.305 23.179-101.965 23.108-210.913 65.17-284.587 138.844-73.458 73.458-58.913 202.452 10.464 277.536l-58.464 58.464c-3.125 3.124-3.125 8.189 0 11.313 3.125 3.125 8.189 3.124 11.313 0l58.464-58.464c75.461 69.726 204.398 83.603 277.536 10.464 73.862-73.862 115.851-183.13 138.845-284.588 15.031-66.321 23.006-139.04 23.492-168.943zm-159.499 27.911c56.462-11.906 104.821-16.836 130.961-18.805l-144.985 144.985zm-16.503 3.633-15.633 140.658-173.889 173.889 28.803-259.193c55.044-27.035 112.943-44.387 160.719-55.354zm-274.335 133.987c28.079-28.079 61.432-51.07 96.544-69.875l-29.842 268.546-56.231 56.231c-63.804-69.493-77.032-188.34-10.471-254.902zm276.687 276.687c-66.526 66.524-185.406 53.335-254.902-10.471l136.09-136.09 218.288-14.543c-22.564 57.62-54.498 116.125-99.476 161.104zm105.682-177.553-207.315 13.812 258.062-258.061c-5.942 79.001-22.785 167.222-50.747 244.249z"/></g></svg>